<svg xmlns="http://www.w3.org/2000/svg" width="112.471" height="88.473" viewBox="0 0 112.471 88.473">
  <g id="Group_543" data-name="Group 543" transform="translate(-495.274 -432.96)">
    <ellipse id="Ellipse_48" data-name="Ellipse 48" cx="8" cy="8.5" rx="8" ry="8.5" transform="translate(495.274 432.96)" fill="#ababab"/>
    <rect id="Rectangle_249" data-name="Rectangle 249" width="63" height="17" rx="8.5" transform="translate(519.274 432.96)" fill="#ababab"/>
    <ellipse id="Ellipse_48-2" data-name="Ellipse 48" cx="8" cy="8.5" rx="8" ry="8.5" transform="translate(495.274 457.96)" fill="#ababab"/>
    <rect id="Rectangle_249-2" data-name="Rectangle 249" width="62" height="17" rx="8.5" transform="translate(519.274 457.96)" fill="#ababab"/>
    <circle id="Ellipse_48-3" data-name="Ellipse 48" cx="8" cy="8" r="8" transform="translate(495.274 483.96)" fill="#ababab"/>
    <rect id="Rectangle_249-3" data-name="Rectangle 249" width="43" height="16" rx="8" transform="translate(519.274 483.96)" fill="#ababab"/>
    <path id="Union_18" data-name="Union 18" d="M12.813,47.092V28.914a14.437,14.437,0,1,1,3.245,0V47.092a1.623,1.623,0,1,1-3.245,0ZM3.244,14.5A11.192,11.192,0,1,0,14.437,3.259,11.231,11.231,0,0,0,3.244,14.5Z" transform="translate(552.878 486.981) rotate(-45)" fill="#707070"/>
  </g>
</svg>
