<svg id="Layer_1" data-name="Layer 1" xmlns="http://www.w3.org/2000/svg" viewBox="0 0 205.01 149.87"><defs><style>.cls-1{fill:#fff;}.cls-2{fill:#004084;}.cls-3{fill:#45c0be;}</style></defs><path class="cls-1" d="M373,337.63V471.5a16,16,0,0,1-16,16H193.54l77.33-44.65.42-1.78L257.5,437.8l-75,43.31,4.79-20.53L168,456Z" transform="translate(-167.99 -337.63)"/><g id="Mask_Group_3" data-name="Mask Group 3"><g id="Group_149" data-name="Group 149"><polygon class="cls-2" points="98.51 123.97 205.01 62.48 205.01 117.97 149.77 149.87 53.65 149.87 98.51 123.97"/><polygon class="cls-3" points="205.01 46.26 205.01 79.74 83.54 149.87 25.55 149.87 102.88 105.22 205.01 46.26"/><path class="cls-3" d="M373,450.18V471.5a16,16,0,0,1-16,16H308.36Z" transform="translate(-167.99 -337.63)"/><polygon class="cls-3" points="205.01 0 205.01 33.49 89.51 100.17 14.5 143.48 19.29 122.95 0 118.37 205.01 0"/><polygon class="cls-2" points="84.01 98.87 205.01 29.01 205.01 62.49 98.51 123.98 98.51 123.97 102.88 105.22 103.3 103.44 89.51 100.17 84.01 98.87"/></g></g></svg>