<svg width="38" height="38" viewBox="0 0 38 38" fill="none" xmlns="http://www.w3.org/2000/svg">
<path d="M19.3161 37.366C29.6344 37.366 37.9991 29.0013 37.9991 18.683C37.9991 8.36467 29.6344 0 19.3161 0C8.99772 0 0.633057 8.36467 0.633057 18.683C0.633057 29.0013 8.99772 37.366 19.3161 37.366Z" fill="#B8BAC0"/>
<path d="M19.455 28.303C18.389 28.296 17.3355 28.0728 16.3582 27.6471C15.3809 27.2213 14.5001 26.6018 13.769 25.826C13.7947 26.902 13.7015 27.9775 13.491 29.033C13.5735 29.081 13.6439 29.147 13.6971 29.2262C13.7503 29.3054 13.7848 29.3955 13.798 29.49C14.0897 30.7719 14.8081 31.9167 15.8357 32.7367C16.8632 33.5568 18.1389 34.0034 19.4535 34.0034C20.7682 34.0034 22.0438 33.5568 23.0714 32.7367C24.0989 31.9167 24.8174 30.7719 25.109 29.49C25.122 29.3954 25.1565 29.3051 25.2099 29.2261C25.2633 29.147 25.3342 29.0813 25.417 29.034C25.2066 27.9785 25.1133 26.903 25.139 25.827C24.4081 26.6024 23.5276 27.2216 22.5506 27.6472C21.5737 28.0727 20.5206 28.2958 19.455 28.303Z" fill="white"/>
<path d="M25.017 25.943C24.2851 26.6995 23.4067 27.299 22.4355 27.7048C21.4642 28.1106 20.4204 28.3143 19.3679 28.3033C18.3153 28.2924 17.276 28.067 16.3134 27.6411C15.3508 27.2152 14.485 26.5976 13.769 25.826C13.7947 26.902 13.7015 27.9775 13.491 29.033C13.5735 29.081 13.6439 29.147 13.6971 29.2262C13.7503 29.3054 13.7848 29.3955 13.798 29.49C13.9451 30.6109 14.4826 31.6441 15.316 32.408C19.121 31.872 23.438 28.116 25.017 25.943Z" fill="#D7DBE0"/>
<path d="M25.143 12.511H14.401C13.5636 12.512 12.7608 12.8452 12.1688 13.4375C11.5768 14.0297 11.2438 14.8326 11.243 15.67V19.46C11.243 24.337 14.927 28.304 19.455 28.304C23.983 28.304 27.667 24.337 27.667 19.46V15.041C27.6673 14.3709 27.4017 13.7282 26.9284 13.2538C26.4552 12.7795 25.8131 12.5123 25.143 12.511Z" fill="white"/>
<path d="M23.8771 5.56201H15.6651C15.0989 5.56277 14.5492 5.75331 14.104 6.10317C13.6588 6.45303 13.3437 6.94202 13.2091 7.49201C12.1425 7.62972 11.1626 8.15085 10.4521 8.95812C9.74161 9.76539 9.34919 10.8036 9.34808 11.879V15.038C9.34823 15.8367 9.51763 16.6262 9.84513 17.3547C10.1726 18.0831 10.6508 18.7338 11.2481 19.264V15.669C11.2489 14.8314 11.582 14.0284 12.1742 13.4361C12.7665 12.8439 13.5695 12.5108 14.4071 12.51H25.1461C25.8161 12.5105 26.4586 12.777 26.9324 13.2507C27.4061 13.7245 27.6726 14.367 27.6731 15.037V19.262C28.2704 18.732 28.7485 18.0815 29.076 17.3532C29.4035 16.6249 29.5729 15.8355 29.5731 15.037V11.247C29.5712 9.73792 28.9702 8.29133 27.9021 7.22527C26.8339 6.15922 25.3862 5.56095 23.8771 5.56201Z" fill="#5C546A"/>
<path d="M5.37103 31.499C7.14769 33.4737 9.31972 35.0527 11.7462 36.1336C14.1726 37.2145 16.7992 37.7731 19.4555 37.7731C22.1118 37.7731 24.7385 37.2145 27.1649 36.1336C29.5913 35.0527 31.7634 33.4737 33.54 31.499C32.9136 30.6325 32.0136 30.0022 30.985 29.71C30.9598 29.7029 30.934 29.6976 30.908 29.694L25.866 28.937C25.8239 28.9324 25.7815 28.93 25.739 28.93C25.5848 28.9301 25.4359 28.9865 25.3204 29.0887C25.2049 29.191 25.1308 29.3319 25.112 29.485C24.8204 30.7669 24.1019 31.9117 23.0744 32.7317C22.0468 33.5518 20.7712 33.9984 19.4565 33.9984C18.1419 33.9984 16.8662 33.5518 15.8387 32.7317C14.8111 31.9117 14.0927 30.7669 13.801 29.485C13.7817 29.3293 13.7052 29.1864 13.5864 29.084C13.4675 28.9816 13.3148 28.9271 13.158 28.931C13.1206 28.9294 13.083 28.9317 13.046 28.938L8.00403 29.695C7.97804 29.6987 7.95233 29.704 7.92704 29.711C6.89833 30.0028 5.99791 30.6327 5.37103 31.499Z" fill="#5C546A"/>
</svg>
