<svg xmlns="http://www.w3.org/2000/svg" width="39" height="39" viewBox="0 0 39 39">
  <g id="Group_2152" data-name="Group 2152" transform="translate(12883 -23266)">
    <rect id="Rectangle_496" data-name="Rectangle 496" width="39" height="39" rx="4" transform="translate(-12883 23266)" fill="#fff"/>
    <g id="Group_1383" data-name="Group 1383" transform="translate(-14630.995 22990.941)">
      <path id="Path_296" data-name="Path 296" d="M0,0H4.246V11.614a2.451,2.451,0,0,1-2.123,2.68A2.451,2.451,0,0,1,0,11.614Z" transform="translate(1768.724 298.227) rotate(-39)" fill="#002b58"/>
      <path id="Path_297" data-name="Path 297" d="M10.427,1.741a8.686,8.686,0,1,0,8.686,8.686,8.686,8.686,0,0,0-8.686-8.686m0-1.741A10.427,10.427,0,1,1,0,10.427,10.427,10.427,0,0,1,10.427,0Z" transform="translate(1754.018 279.288)" fill="#002b58"/>
    </g>
  </g>
</svg>
