<svg width="18" height="23" viewBox="0 0 18 23" fill="none" xmlns="http://www.w3.org/2000/svg">
<path d="M15.871 16.881L14.029 14.275V9.18398C14.0276 7.94197 13.5807 6.74169 12.7694 5.80124C11.9581 4.86079 10.8364 4.24259 9.60805 4.05898V2.90898C9.60805 2.70754 9.52803 2.51436 9.3856 2.37193C9.24316 2.22949 9.04998 2.14948 8.84855 2.14948C8.64712 2.14948 8.45393 2.22949 8.3115 2.37193C8.16907 2.51436 8.08905 2.70754 8.08905 2.90898V4.05898C6.86124 4.24325 5.74022 4.86173 4.92956 5.80211C4.11891 6.74249 3.67238 7.94241 3.67105 9.18398V14.275L1.82905 16.881C1.74829 16.9947 1.70039 17.1285 1.6906 17.2676C1.6808 17.4068 1.70949 17.5459 1.77352 17.6698C1.83755 17.7938 1.93444 17.8977 2.0536 17.9702C2.17275 18.0427 2.30956 18.081 2.44905 18.081H15.249C15.3887 18.0814 15.5258 18.0433 15.6452 17.971C15.7647 17.8986 15.8618 17.7947 15.9261 17.6707C15.9904 17.5467 16.0192 17.4074 16.0095 17.2681C15.9998 17.1288 15.9519 16.9948 15.871 16.881V16.881Z" stroke="#7D7D7D" stroke-width="2"/>
<path d="M8.85105 18.621C8.4274 18.621 8.01327 18.7466 7.66102 18.982C7.30877 19.2173 7.03422 19.5519 6.87209 19.9433C6.70997 20.3347 6.66756 20.7654 6.75021 21.1809C6.83286 21.5964 7.03685 21.9781 7.33642 22.2776C7.63598 22.5772 8.01765 22.7812 8.43316 22.8638C8.84867 22.9465 9.27935 22.9041 9.67075 22.7419C10.0622 22.5798 10.3967 22.3053 10.6321 21.953C10.8674 21.6008 10.993 21.1866 10.993 20.763C10.9923 20.1951 10.7663 19.6508 10.3648 19.2492C9.96327 18.8477 9.4189 18.6218 8.85105 18.621Z" fill="#707070"/>
<path d="M16.0111 0.862976C15.7565 0.862976 15.5077 0.938478 15.296 1.0799C15.0844 1.22131 14.9194 1.4223 14.822 1.65747C14.7246 1.89264 14.6991 2.15141 14.7488 2.40106C14.7984 2.65072 14.921 2.88004 15.101 3.06003C15.281 3.24002 15.5103 3.3626 15.76 3.41226C16.0096 3.46192 16.2684 3.43643 16.5036 3.33902C16.7387 3.24161 16.9398 3.07667 17.0812 2.86502C17.2226 2.65337 17.2981 2.40454 17.2981 2.14999C17.2975 1.80882 17.1618 1.48178 16.9205 1.24054C16.6793 0.999295 16.3522 0.863505 16.0111 0.862976Z" fill="#DF0B0B"/>
</svg>
