<svg id="red_cross" data-name="red cross" xmlns="http://www.w3.org/2000/svg" width="60" height="60" viewBox="0 0 60 60">
  <circle id="Ellipse_34" data-name="Ellipse 34" cx="30" cy="30" r="30" fill="#df0b0b"/>
  <path id="Line_37" data-name="Line 37" d="M25,27.5a2.492,2.492,0,0,1-1.768-.732l-25-25a2.5,2.5,0,0,1,0-3.536,2.5,2.5,0,0,1,3.536,0l25,25A2.5,2.5,0,0,1,25,27.5Z" transform="translate(17.5 17.5)" fill="#fff"/>
  <path id="Line_38" data-name="Line 38" d="M0,27.5a2.492,2.492,0,0,1-1.768-.732,2.5,2.5,0,0,1,0-3.536l25-25a2.5,2.5,0,0,1,3.536,0,2.5,2.5,0,0,1,0,3.536l-25,25A2.492,2.492,0,0,1,0,27.5Z" transform="translate(17.5 17.5)" fill="#fff"/>
</svg>
