<svg id="Component_17_72" data-name="Component 17 – 72" xmlns="http://www.w3.org/2000/svg" xmlns:xlink="http://www.w3.org/1999/xlink" width="110" height="110" viewBox="0 0 110 110">
  <defs>
    <clipPath id="clip-path">
      <rect id="Rectangle_204" data-name="Rectangle 204" width="12.635" height="19.797" fill="#fff"/>
    </clipPath>
  </defs>
  <g id="Ellipse_29" data-name="Ellipse 29" fill="#45c0be" stroke="#45c0be" stroke-width="90">
    <circle cx="55" cy="55" r="55" stroke="none"/>
    <circle cx="55" cy="55" r="10" fill="none"/>
  </g>
  <rect id="Rectangle_343" data-name="Rectangle 343" width="42" height="80" rx="5" transform="translate(95 34) rotate(90)" fill="#08504f"/>
  <g id="Group_371" data-name="Group 371" transform="translate(48.682 45.102)">
    <g id="Group_370" data-name="Group 370" transform="translate(0 0)" clip-path="url(#clip-path)">
      <path id="Path_183" data-name="Path 183" d="M12.633,6.155c0,.387-.155.534-.543.535-.7,0-1.392,0-2.088,0-.13,0-.186.026-.215.17a5.353,5.353,0,0,1-3.644,4.188c-.633.235-1.306.36-1.961.535.026.03.077.093.132.152,2.17,2.349,4.2,4.816,6.23,7.285.24.292.182.556-.166.778H7.323c-.3-.333-.606-.66-.894-1C4.4,16.378,2.343,13.98.188,11.671A.643.643,0,0,1,0,11.2c0-.534,0-1.07,0-1.6,0-.381.176-.544.561-.55.773-.01,1.548,0,2.319-.044a4.63,4.63,0,0,0,2.6-.862,2.562,2.562,0,0,0,.965-1.452H.632A2.052,2.052,0,0,1,.38,6.683a.387.387,0,0,1-.363-.365Q0,5.526.018,4.734A.381.381,0,0,1,.379,4.37a2.363,2.363,0,0,1,.27-.013H6.212l.039-.046a6.344,6.344,0,0,0-.418-.531,2.953,2.953,0,0,0-1.685-.833A14.71,14.71,0,0,0,2.4,2.783c-.6-.027-1.212-.005-1.817-.007C.174,2.775,0,2.6,0,2.19Q0,1.378,0,.566C0,.144.15,0,.574,0H12.039c.413,0,.569.156.572.571,0,.374,0,.748,0,1.122,0,.5-.142.646-.638.646H8.9a4.4,4.4,0,0,1,.328.534q.271.636.5,1.29c.051.147.106.2.264.2.683-.009,1.366-.005,2.049,0,.462,0,.6.137.6.6,0,.4,0,.8,0,1.2" transform="translate(0 0)" fill="#fff"/>
    </g>
  </g>
</svg>
