<svg xmlns="http://www.w3.org/2000/svg" xmlns:xlink="http://www.w3.org/1999/xlink" width="66" height="66" viewBox="0 0 66 66">
  <defs>
    <linearGradient id="linear-gradient" x1="0.5" x2="0.5" y2="1" gradientUnits="objectBoundingBox">
      <stop offset="0" stop-color="#45c0be"/>
      <stop offset="0.519" stop-color="#07b3ab"/>
      <stop offset="1" stop-color="#00b2a9"/>
    </linearGradient>
    <filter id="Rectangle_164" x="0" y="0" width="66" height="66" filterUnits="userSpaceOnUse">
      <feOffset dy="3" input="SourceAlpha"/>
      <feGaussianBlur stdDeviation="3" result="blur"/>
      <feFlood flood-opacity="0.161"/>
      <feComposite operator="in" in2="blur"/>
      <feComposite in="SourceGraphic"/>
    </filter>
  </defs>
  <g id="CGHS_Icon" data-name="CGHS Icon" transform="translate(9 6)">
    <g transform="matrix(1, 0, 0, 1, -9, -6)" filter="url(#Rectangle_164)">
      <g id="Rectangle_164-2" data-name="Rectangle 164" transform="translate(9 6)" stroke="#fff" stroke-width="2" fill="url(#linear-gradient)">
        <rect width="48" height="48" rx="24" stroke="none"/>
        <rect x="1" y="1" width="46" height="46" rx="23" fill="none"/>
      </g>
    </g>
    <path id="Path_710" data-name="Path 710" d="M-5.751.216A5.573,5.573,0,0,0-.639-2.736L-2.835-3.8A3.255,3.255,0,0,1-5.751-2.052,3.721,3.721,0,0,1-9.423-5.994,3.721,3.721,0,0,1-5.751-9.936,3.288,3.288,0,0,1-2.835-8.19l2.2-1.08A5.54,5.54,0,0,0-5.751-12.2a6.077,6.077,0,0,0-6.3,6.21A6.077,6.077,0,0,0-5.751.216ZM.315-5.994A6.113,6.113,0,0,0,6.705.234a6.664,6.664,0,0,0,5.112-2.268v-4.59H6.093v2.2H9.3V-2.97a4.056,4.056,0,0,1-2.592.918A3.739,3.739,0,0,1,2.943-5.994,3.739,3.739,0,0,1,6.705-9.936,3.407,3.407,0,0,1,9.549-8.424l2.124-1.152A5.624,5.624,0,0,0,6.705-12.2,6.088,6.088,0,0,0,.315-5.994ZM.009,15V2.994H-2.565V7.71h-5.67V2.994h-2.556V15h2.556V9.96h5.67V15Zm1.53-1.692a6.918,6.918,0,0,0,5.094,1.908c3.24,0,4.806-1.656,4.806-3.852,0-2.664-2.52-3.258-4.5-3.708C5.553,7.332,4.545,7.08,4.545,6.27c0-.72.612-1.224,1.764-1.224A5.122,5.122,0,0,1,9.747,6.36l1.422-1.872a6.678,6.678,0,0,0-4.68-1.674c-2.826,0-4.554,1.62-4.554,3.618,0,2.682,2.52,3.222,4.482,3.672,1.386.324,2.43.63,2.43,1.53,0,.684-.684,1.35-2.088,1.35a5.264,5.264,0,0,1-3.816-1.62Z" transform="translate(24 23)" fill="#fff"/>
  </g>
</svg>
