<svg xmlns="http://www.w3.org/2000/svg" xmlns:xlink="http://www.w3.org/1999/xlink" width="66" height="66" viewBox="0 0 66 66">
  <defs>
    <linearGradient id="linear-gradient" x1="0.5" x2="0.5" y2="1" gradientUnits="objectBoundingBox">
      <stop offset="0" stop-color="#45c0be"/>
      <stop offset="0.519" stop-color="#07b3ab"/>
      <stop offset="1" stop-color="#00b2a9"/>
    </linearGradient>
    <filter id="Rectangle_164" x="0" y="0" width="66" height="66" filterUnits="userSpaceOnUse">
      <feOffset dy="3" input="SourceAlpha"/>
      <feGaussianBlur stdDeviation="3" result="blur"/>
      <feFlood flood-opacity="0.161"/>
      <feComposite operator="in" in2="blur"/>
      <feComposite in="SourceGraphic"/>
    </filter>
  </defs>
  <g id="EWS" transform="translate(9 6)">
    <g id="Group_422" data-name="Group 422">
      <g transform="matrix(1, 0, 0, 1, -9, -6)" filter="url(#Rectangle_164)">
        <g id="Rectangle_164-2" data-name="Rectangle 164" transform="translate(9 6)" stroke="#fff" stroke-width="2" fill="url(#linear-gradient)">
          <rect width="48" height="48" rx="24" stroke="none"/>
          <rect x="1" y="1" width="46" height="46" rx="23" fill="none"/>
        </g>
      </g>
    </g>
    <path id="Path_718" data-name="Path 718" d="M-9.225,0V-2.214h-5.94V-5h5.814V-7.2h-5.814V-9.81h5.94v-2.2h-8.5V0Zm13.9,0,3.42-12.006H5.211L3.123-3.33.855-12.006h-2L-3.429-3.33l-2.106-8.676H-8.4L-4.959,0h2.718L-.153-8.244,1.953,0Zm3.8-1.692A6.918,6.918,0,0,0,13.563.216c3.24,0,4.806-1.656,4.806-3.852,0-2.664-2.52-3.258-4.5-3.708-1.386-.324-2.394-.576-2.394-1.386,0-.72.612-1.224,1.764-1.224A5.122,5.122,0,0,1,16.677-8.64L18.1-10.512a6.678,6.678,0,0,0-4.68-1.674c-2.826,0-4.554,1.62-4.554,3.618,0,2.682,2.52,3.222,4.482,3.672,1.386.324,2.43.63,2.43,1.53,0,.684-.684,1.35-2.088,1.35a5.264,5.264,0,0,1-3.816-1.62Z" transform="translate(24 31)" fill="#fff"/>
  </g>
</svg>
