<svg id="PSU" xmlns="http://www.w3.org/2000/svg" xmlns:xlink="http://www.w3.org/1999/xlink" width="41" height="18.135" viewBox="0 0 41 18.135">
  <defs>
    <linearGradient id="linear-gradient" x1="0.5" x2="0.5" y2="1" gradientUnits="objectBoundingBox">
      <stop offset="0" stop-color="#45c0be"/>
      <stop offset="0.519" stop-color="#07b3ab"/>
      <stop offset="1" stop-color="#00b2a9"/>
    </linearGradient>
  </defs>
  <g id="Group_417" data-name="Group 417">
    <rect id="Rectangle_164" data-name="Rectangle 164" width="41" height="18.135" rx="9.067" fill="url(#linear-gradient)"/>
    <path id="Rectangle_164_-_Outline" data-name="Rectangle 164 - Outline" d="M9.067,1a8.067,8.067,0,0,0,0,16.135H31.933A8.067,8.067,0,0,0,31.933,1H9.067m0-1H31.933a9.067,9.067,0,0,1,0,18.135H9.067A9.067,9.067,0,0,1,9.067,0Z" fill="#fff"/>
  </g>
  <path id="Path_755" data-name="Path 755" d="M-9.216,0V-2.868h2.04A2.493,2.493,0,0,0-4.488-5.424,2.5,2.5,0,0,0-7.176-8H-10.92V0Zm2.988-5.436A1.091,1.091,0,0,1-7.4-4.332H-9.216V-6.54H-7.4A1.1,1.1,0,0,1-6.228-5.436Zm2.244,4.308A4.612,4.612,0,0,0-.588.144c2.16,0,3.2-1.1,3.2-2.568C2.616-4.2.936-4.6-.384-4.9c-.924-.216-1.6-.384-1.6-.924,0-.48.408-.816,1.176-.816a3.415,3.415,0,0,1,2.292.876l.948-1.248A4.452,4.452,0,0,0-.684-8.124c-1.884,0-3.036,1.08-3.036,2.412,0,1.788,1.68,2.148,2.988,2.448.924.216,1.62.42,1.62,1.02,0,.456-.456.9-1.392.9a3.509,3.509,0,0,1-2.544-1.08ZM3.768-3.192c0,1.968,1.14,3.336,3.588,3.336C9.78.144,10.92-1.212,10.92-3.2V-8H9.192v4.752A1.7,1.7,0,0,1,7.356-1.368,1.71,1.71,0,0,1,5.5-3.252V-8H3.768Z" transform="translate(21 13.392)" fill="#fff"/>
</svg>
