<svg id="cash" xmlns="http://www.w3.org/2000/svg" xmlns:xlink="http://www.w3.org/1999/xlink" width="41" height="18.135" viewBox="0 0 41 18.135">
  <defs>
    <linearGradient id="linear-gradient" x1="0.5" x2="0.5" y2="1" gradientUnits="objectBoundingBox">
      <stop offset="0" stop-color="#45c0be"/>
      <stop offset="0.519" stop-color="#07b3ab"/>
      <stop offset="1" stop-color="#00b2a9"/>
    </linearGradient>
  </defs>
  <g id="Group_421" data-name="Group 421">
    <rect id="Rectangle_164" data-name="Rectangle 164" width="41" height="18.135" rx="9.067" fill="url(#linear-gradient)"/>
    <path id="Rectangle_164_-_Outline" data-name="Rectangle 164 - Outline" d="M9.067,1a8.067,8.067,0,0,0,0,16.135H31.933A8.067,8.067,0,0,0,31.933,1H9.067m0-1H31.933a9.067,9.067,0,0,1,0,18.135H9.067A9.067,9.067,0,0,1,9.067,0Z" fill="#fff"/>
  </g>
  <path id="Path_715" data-name="Path 715" d="M-1.089-2.371A3.933,3.933,0,0,0,2.548-4.708L.985-5.549A2.3,2.3,0,0,1-1.089-4.166C-2.575-4.166-3.7-5.492-3.7-7.287s1.127-3.121,2.612-3.121A2.323,2.323,0,0,1,.985-9.026l1.562-.855A3.908,3.908,0,0,0-1.089-12.2c-2.5,0-4.482,2-4.482,4.917S-3.586-2.371-1.089-2.371Z" transform="translate(22.012 16.589)" fill="#fff"/>
</svg>
