<svg xmlns="http://www.w3.org/2000/svg" xmlns:xlink="http://www.w3.org/1999/xlink" width="66" height="66" viewBox="0 0 66 66">
  <defs>
    <linearGradient id="linear-gradient" x1="0.5" x2="0.5" y2="1" gradientUnits="objectBoundingBox">
      <stop offset="0" stop-color="#45c0be"/>
      <stop offset="0.519" stop-color="#07b3ab"/>
      <stop offset="1" stop-color="#00b2a9"/>
    </linearGradient>
    <filter id="Rectangle_164" x="0" y="0" width="66" height="66" filterUnits="userSpaceOnUse">
      <feOffset dy="3" input="SourceAlpha"/>
      <feGaussianBlur stdDeviation="3" result="blur"/>
      <feFlood flood-opacity="0.161"/>
      <feComposite operator="in" in2="blur"/>
      <feComposite in="SourceGraphic"/>
    </filter>
  </defs>
  <g id="Cash_Icon" data-name="Cash Icon" transform="translate(9 6)">
    <g id="Group_421" data-name="Group 421">
      <g transform="matrix(1, 0, 0, 1, -9, -6)" filter="url(#Rectangle_164)">
        <g id="Rectangle_164-2" data-name="Rectangle 164" transform="translate(9 6)" stroke="#fff" stroke-width="2" fill="url(#linear-gradient)">
          <rect width="48" height="48" rx="24" stroke="none"/>
          <rect x="1" y="1" width="46" height="46" rx="23" fill="none"/>
        </g>
      </g>
    </g>
    <path id="Path_715" data-name="Path 715" d="M.729.216A5.573,5.573,0,0,0,5.841-2.736L3.645-3.8A3.255,3.255,0,0,1,.729-2.052,3.721,3.721,0,0,1-2.943-5.994,3.721,3.721,0,0,1,.729-9.936,3.288,3.288,0,0,1,3.645-8.19l2.2-1.08A5.54,5.54,0,0,0,.729-12.2a6.077,6.077,0,0,0-6.3,6.21A6.077,6.077,0,0,0,.729.216Z" transform="translate(24 31)" fill="#fff"/>
  </g>
</svg>
