<svg id="cghs" xmlns="http://www.w3.org/2000/svg" xmlns:xlink="http://www.w3.org/1999/xlink" width="41" height="18.135" viewBox="0 0 41 18.135">
  <defs>
    <linearGradient id="linear-gradient" x1="0.5" x2="0.5" y2="1" gradientUnits="objectBoundingBox">
      <stop offset="0" stop-color="#45c0be"/>
      <stop offset="0.519" stop-color="#07b3ab"/>
      <stop offset="1" stop-color="#00b2a9"/>
    </linearGradient>
  </defs>
  <rect id="Rectangle_164" data-name="Rectangle 164" width="41" height="18.135" rx="9.067" fill="url(#linear-gradient)"/>
  <path id="Rectangle_164_-_Outline" data-name="Rectangle 164 - Outline" d="M9.067,1a8.067,8.067,0,0,0,0,16.135H31.933A8.067,8.067,0,0,0,31.933,1H9.067m0-1H31.933a9.067,9.067,0,0,1,0,18.135H9.067A9.067,9.067,0,0,1,9.067,0Z" fill="#fff"/>
  <path id="Path_710" data-name="Path 710" d="M-13.569.871A4.027,4.027,0,0,0-9.932-1.048l-1.562-.691A2.35,2.35,0,0,1-13.569-.6a2.526,2.526,0,0,1-2.612-2.563,2.526,2.526,0,0,1,2.612-2.563,2.375,2.375,0,0,1,2.074,1.135l1.562-.7A4.005,4.005,0,0,0-13.569-7.2c-2.5,0-4.482,1.638-4.482,4.038S-16.066.871-13.569.871Zm4.315-4.038C-9.254-.709-7.2.883-4.708.883A4.945,4.945,0,0,0-1.071-.591V-3.576H-5.143v1.428h2.279V-1.2a3.053,3.053,0,0,1-1.844.6A2.542,2.542,0,0,1-7.384-3.166,2.542,2.542,0,0,1-4.708-5.729a2.489,2.489,0,0,1,2.023.983L-1.173-5.5A4.1,4.1,0,0,0-4.708-7.2C-7.2-7.2-9.254-5.636-9.254-3.166ZM7.529.811V-7H5.7v3.066H1.664V-7H-.155V.811H1.664V-2.466H5.7V.811Zm1.088-1.1A5.184,5.184,0,0,0,12.241.951c2.3,0,3.419-1.077,3.419-2.5,0-1.732-1.793-2.118-3.2-2.411-.986-.211-1.7-.375-1.7-.9,0-.468.435-.8,1.255-.8a3.847,3.847,0,0,1,2.446.854l1.012-1.217a5.024,5.024,0,0,0-3.329-1.088c-2.01,0-3.24,1.053-3.24,2.352,0,1.744,1.793,2.095,3.189,2.388.986.211,1.729.41,1.729.995,0,.445-.487.878-1.485.878A3.918,3.918,0,0,1,9.616-1.553Z" transform="translate(21.695 12.302)" fill="#fff"/>
</svg>
