<svg id="ews" xmlns="http://www.w3.org/2000/svg" xmlns:xlink="http://www.w3.org/1999/xlink" width="41" height="18.135" viewBox="0 0 41 18.135">
  <defs>
    <linearGradient id="linear-gradient" x1="0.5" x2="0.5" y2="1" gradientUnits="objectBoundingBox">
      <stop offset="0" stop-color="#45c0be"/>
      <stop offset="0.519" stop-color="#07b3ab"/>
      <stop offset="1" stop-color="#00b2a9"/>
    </linearGradient>
  </defs>
  <g id="Group_417" data-name="Group 417">
    <rect id="Rectangle_164" data-name="Rectangle 164" width="41" height="18.135" rx="9.067" fill="url(#linear-gradient)"/>
    <path id="Rectangle_164_-_Outline" data-name="Rectangle 164 - Outline" d="M9.067,1a8.067,8.067,0,0,0,0,16.135H31.933A8.067,8.067,0,0,0,31.933,1H9.067m0-1H31.933a9.067,9.067,0,0,1,0,18.135H9.067A9.067,9.067,0,0,1,9.067,0Z" fill="#fff"/>
  </g>
  <path id="Path_753" data-name="Path 753" d="M-6.15,0V-1.476h-3.96v-1.86h3.876V-4.8H-10.11V-6.54h3.96V-8h-5.664V0ZM3.114,0l2.28-8H3.474L2.082-2.22.57-8H-.762L-2.286-2.22-3.69-8H-5.6l2.292,8h1.812L-.1-5.5,1.3,0ZM5.646-1.128A4.612,4.612,0,0,0,9.042.144c2.16,0,3.2-1.1,3.2-2.568,0-1.776-1.68-2.172-3-2.472-.924-.216-1.6-.384-1.6-.924,0-.48.408-.816,1.176-.816a3.415,3.415,0,0,1,2.292.876l.948-1.248a4.452,4.452,0,0,0-3.12-1.116c-1.884,0-3.036,1.08-3.036,2.412,0,1.788,1.68,2.148,2.988,2.448.924.216,1.62.42,1.62,1.02,0,.456-.456.9-1.392.9a3.509,3.509,0,0,1-2.544-1.08Z" transform="translate(21 13.392)" fill="#fff"/>
</svg>
