<svg xmlns="http://www.w3.org/2000/svg" xmlns:xlink="http://www.w3.org/1999/xlink" width="66" height="66" viewBox="0 0 66 66">
  <defs>
    <linearGradient id="linear-gradient" x1="0.5" x2="0.5" y2="1" gradientUnits="objectBoundingBox">
      <stop offset="0" stop-color="#45c0be"/>
      <stop offset="0.519" stop-color="#07b3ab"/>
      <stop offset="1" stop-color="#00b2a9"/>
    </linearGradient>
    <filter id="Rectangle_164" x="0" y="0" width="66" height="66" filterUnits="userSpaceOnUse">
      <feOffset dy="3" input="SourceAlpha"/>
      <feGaussianBlur stdDeviation="3" result="blur"/>
      <feFlood flood-opacity="0.161"/>
      <feComposite operator="in" in2="blur"/>
      <feComposite in="SourceGraphic"/>
    </filter>
  </defs>
  <g id="HWC_icon" data-name="HWC icon" transform="translate(9 6)">
    <g id="Group_416" data-name="Group 416">
      <g transform="matrix(1, 0, 0, 1, -9, -6)" filter="url(#Rectangle_164)">
        <g id="Rectangle_164-2" data-name="Rectangle 164" transform="translate(9 6)" stroke="#fff" stroke-width="2" fill="url(#linear-gradient)">
          <rect width="48" height="48" rx="24" stroke="none"/>
          <rect x="1" y="1" width="46" height="46" rx="23" fill="none"/>
        </g>
      </g>
    </g>
    <path id="Path_712" data-name="Path 712" d="M-8.856,0V-12.006H-11.43V-7.29H-17.1v-4.716h-2.556V0H-17.1V-5.04h5.67V0ZM5.4,0,8.82-12.006H5.94L3.852-3.33,1.584-12.006h-2L-2.7-3.33l-2.106-8.676H-7.668L-4.23,0h2.718L.576-8.244,2.682,0Zm9.99.216A5.573,5.573,0,0,0,20.5-2.736L18.306-3.8A3.255,3.255,0,0,1,15.39-2.052a3.721,3.721,0,0,1-3.672-3.942A3.721,3.721,0,0,1,15.39-9.936,3.288,3.288,0,0,1,18.306-8.19l2.2-1.08A5.54,5.54,0,0,0,15.39-12.2a6.077,6.077,0,0,0-6.3,6.21A6.077,6.077,0,0,0,15.39.216Z" transform="translate(24 31)" fill="#fff"/>
  </g>
</svg>
