<svg xmlns="http://www.w3.org/2000/svg" xmlns:xlink="http://www.w3.org/1999/xlink" width="66" height="66" viewBox="0 0 66 66">
  <defs>
    <linearGradient id="linear-gradient" x1="0.5" x2="0.5" y2="1" gradientUnits="objectBoundingBox">
      <stop offset="0" stop-color="#45c0be"/>
      <stop offset="0.519" stop-color="#07b3ab"/>
      <stop offset="1" stop-color="#00b2a9"/>
    </linearGradient>
    <filter id="Rectangle_164" x="0" y="0" width="66" height="66" filterUnits="userSpaceOnUse">
      <feOffset dy="3" input="SourceAlpha"/>
      <feGaussianBlur stdDeviation="3" result="blur"/>
      <feFlood flood-opacity="0.161"/>
      <feComposite operator="in" in2="blur"/>
      <feComposite in="SourceGraphic"/>
    </filter>
  </defs>
  <g id="Ins_icon" data-name="Ins icon" transform="translate(9 6)">
    <g id="Group_426" data-name="Group 426">
      <g transform="matrix(1, 0, 0, 1, -9, -6)" filter="url(#Rectangle_164)">
        <g id="Rectangle_164-2" data-name="Rectangle 164" transform="translate(9 6)" stroke="#fff" stroke-width="2" fill="url(#linear-gradient)">
          <rect width="48" height="48" rx="24" stroke="none"/>
          <rect x="1" y="1" width="46" height="46" rx="23" fill="none"/>
        </g>
      </g>
    </g>
    <path id="Path_717" data-name="Path 717" d="M-10.683,0V-12.006h-2.556V0ZM2.439,0V-12.006H-.117V-4.23l-5.562-7.776H-8.307V0h2.556V-8.064L-.027,0ZM3.987-1.692A6.918,6.918,0,0,0,9.081.216c3.24,0,4.806-1.656,4.806-3.852,0-2.664-2.52-3.258-4.5-3.708C8-7.668,6.993-7.92,6.993-8.73c0-.72.612-1.224,1.764-1.224A5.122,5.122,0,0,1,12.195-8.64l1.422-1.872a6.678,6.678,0,0,0-4.68-1.674c-2.826,0-4.554,1.62-4.554,3.618,0,2.682,2.52,3.222,4.482,3.672,1.386.324,2.43.63,2.43,1.53,0,.684-.684,1.35-2.088,1.35a5.264,5.264,0,0,1-3.816-1.62Z" transform="translate(25 31)" fill="#fff"/>
  </g>
</svg>
