<svg xmlns="http://www.w3.org/2000/svg" xmlns:xlink="http://www.w3.org/1999/xlink" width="66" height="66" viewBox="0 0 66 66">
  <defs>
    <linearGradient id="linear-gradient" x1="0.5" x2="0.5" y2="1" gradientUnits="objectBoundingBox">
      <stop offset="0" stop-color="#45c0be"/>
      <stop offset="0.519" stop-color="#07b3ab"/>
      <stop offset="1" stop-color="#00b2a9"/>
    </linearGradient>
    <filter id="Rectangle_164" x="0" y="0" width="66" height="66" filterUnits="userSpaceOnUse">
      <feOffset dy="3" input="SourceAlpha"/>
      <feGaussianBlur stdDeviation="3" result="blur"/>
      <feFlood flood-opacity="0.161"/>
      <feComposite operator="in" in2="blur"/>
      <feComposite in="SourceGraphic"/>
    </filter>
  </defs>
  <g id="OD_icon" data-name="OD icon" transform="translate(9 6)">
    <g transform="matrix(1, 0, 0, 1, -9, -6)" filter="url(#Rectangle_164)">
      <g id="Rectangle_164-2" data-name="Rectangle 164" transform="translate(9 6)" stroke="#fff" stroke-width="2" fill="url(#linear-gradient)">
        <rect width="48" height="48" rx="24" stroke="none"/>
        <rect x="1" y="1" width="46" height="46" rx="23" fill="none"/>
      </g>
    </g>
    <path id="Path_711" data-name="Path 711" d="M-12.735-5.994A6.028,6.028,0,0,0-6.471.216,6.032,6.032,0,0,0-.189-5.994,6.032,6.032,0,0,0-6.471-12.2,6.028,6.028,0,0,0-12.735-5.994Zm9.918,0A3.654,3.654,0,0,1-6.471-2.052a3.64,3.64,0,0,1-3.636-3.942A3.631,3.631,0,0,1-6.471-9.936,3.644,3.644,0,0,1-2.817-5.994ZM6.345,0c3.762,0,6.372-2.376,6.372-5.994s-2.61-6.012-6.372-6.012H1.611V0ZM4.167-9.756H6.345a3.513,3.513,0,0,1,3.762,3.762A3.594,3.594,0,0,1,6.345-2.25H4.167Z" transform="translate(24 31)" fill="#fff"/>
  </g>
</svg>
