<svg xmlns="http://www.w3.org/2000/svg" xmlns:xlink="http://www.w3.org/1999/xlink" width="66" height="66" viewBox="0 0 66 66">
  <defs>
    <linearGradient id="linear-gradient" x1="0.5" x2="0.5" y2="1" gradientUnits="objectBoundingBox">
      <stop offset="0" stop-color="#45c0be"/>
      <stop offset="0.519" stop-color="#07b3ab"/>
      <stop offset="1" stop-color="#00b2a9"/>
    </linearGradient>
    <filter id="Rectangle_164" x="0" y="0" width="66" height="66" filterUnits="userSpaceOnUse">
      <feOffset dy="3" input="SourceAlpha"/>
      <feGaussianBlur stdDeviation="3" result="blur"/>
      <feFlood flood-opacity="0.161"/>
      <feComposite operator="in" in2="blur"/>
      <feComposite in="SourceGraphic"/>
    </filter>
  </defs>
  <g id="PSU_icon" data-name="PSU icon" transform="translate(9 6)">
    <g id="Group_424" data-name="Group 424">
      <g transform="matrix(1, 0, 0, 1, -9, -6)" filter="url(#Rectangle_164)">
        <g id="Rectangle_164-2" data-name="Rectangle 164" transform="translate(9 6)" stroke="#fff" stroke-width="2" fill="url(#linear-gradient)">
          <rect width="48" height="48" rx="24" stroke="none"/>
          <rect x="1" y="1" width="46" height="46" rx="23" fill="none"/>
        </g>
      </g>
    </g>
    <path id="Path_716" data-name="Path 716" d="M-13.824,0V-4.3h3.06A3.739,3.739,0,0,0-6.732-8.136a3.747,3.747,0,0,0-4.032-3.87H-16.38V0Zm4.482-8.154A1.637,1.637,0,0,1-11.106-6.5h-2.718V-9.81h2.718A1.647,1.647,0,0,1-9.342-8.154Zm3.366,6.462A6.918,6.918,0,0,0-.882.216c3.24,0,4.806-1.656,4.806-3.852,0-2.664-2.52-3.258-4.5-3.708C-1.962-7.668-2.97-7.92-2.97-8.73c0-.72.612-1.224,1.764-1.224A5.122,5.122,0,0,1,2.232-8.64l1.422-1.872a6.678,6.678,0,0,0-4.68-1.674c-2.826,0-4.554,1.62-4.554,3.618C-5.58-5.886-3.06-5.346-1.1-4.9c1.386.324,2.43.63,2.43,1.53,0,.684-.684,1.35-2.088,1.35a5.264,5.264,0,0,1-3.816-1.62Zm11.628-3.1c0,2.952,1.71,5,5.382,5,3.636,0,5.346-2.034,5.346-5.022v-7.2H13.788v7.128a2.555,2.555,0,0,1-2.754,2.826,2.565,2.565,0,0,1-2.79-2.826v-7.128H5.652Z" transform="translate(24 31)" fill="#fff"/>
  </g>
</svg>
