<svg xmlns="http://www.w3.org/2000/svg" xmlns:xlink="http://www.w3.org/1999/xlink" width="66" height="66" viewBox="0 0 66 66">
  <defs>
    <linearGradient id="linear-gradient" x1="0.5" x2="0.5" y2="1" gradientUnits="objectBoundingBox">
      <stop offset="0" stop-color="#45c0be"/>
      <stop offset="0.519" stop-color="#07b3ab"/>
      <stop offset="1" stop-color="#00b2a9"/>
    </linearGradient>
    <filter id="Rectangle_164" x="0" y="0" width="66" height="66" filterUnits="userSpaceOnUse">
      <feOffset dy="3" input="SourceAlpha"/>
      <feGaussianBlur stdDeviation="3" result="blur"/>
      <feFlood flood-opacity="0.161"/>
      <feComposite operator="in" in2="blur"/>
      <feComposite in="SourceGraphic"/>
    </filter>
  </defs>
  <g id="vip_icon" data-name="vip icon" transform="translate(9 6)">
    <g id="Group_417" data-name="Group 417">
      <g transform="matrix(1, 0, 0, 1, -9, -6)" filter="url(#Rectangle_164)">
        <g id="Rectangle_164-2" data-name="Rectangle 164" transform="translate(9 6)" stroke="#fff" stroke-width="2" fill="url(#linear-gradient)">
          <rect width="48" height="48" rx="24" stroke="none"/>
          <rect x="1" y="1" width="46" height="46" rx="23" fill="none"/>
        </g>
      </g>
    </g>
    <path id="Path_709" data-name="Path 709" d="M-6.48,0l4.626-12.006H-4.77L-8.082-2.772l-3.33-9.234h-2.916L-9.684,0Zm8.3,0V-12.006H-.738V0ZM6.75,0V-4.3H9.81a3.739,3.739,0,0,0,4.032-3.834,3.747,3.747,0,0,0-4.032-3.87H4.194V0Zm4.482-8.154A1.637,1.637,0,0,1,9.468-6.5H6.75V-9.81H9.468A1.647,1.647,0,0,1,11.232-8.154Z" transform="translate(24 31)" fill="#fff"/>
  </g>
</svg>
