<svg id="vip" xmlns="http://www.w3.org/2000/svg" xmlns:xlink="http://www.w3.org/1999/xlink" width="41" height="18.135" viewBox="0 0 41 18.135">
  <defs>
    <linearGradient id="linear-gradient" x1="0.5" x2="0.5" y2="1" gradientUnits="objectBoundingBox">
      <stop offset="0" stop-color="#45c0be"/>
      <stop offset="0.519" stop-color="#07b3ab"/>
      <stop offset="1" stop-color="#00b2a9"/>
    </linearGradient>
  </defs>
  <g id="Group_417" data-name="Group 417">
    <rect id="Rectangle_164" data-name="Rectangle 164" width="41" height="18.135" rx="9.067" fill="url(#linear-gradient)"/>
    <path id="Rectangle_164_-_Outline" data-name="Rectangle 164 - Outline" d="M9.067,1a8.067,8.067,0,0,0,0,16.135H31.933A8.067,8.067,0,0,0,31.933,1H9.067m0-1H31.933a9.067,9.067,0,0,1,0,18.135H9.067A9.067,9.067,0,0,1,9.067,0Z" fill="#fff"/>
  </g>
  <path id="Path_709" data-name="Path 709" d="M-8.745-3.936l3.291-8.07H-7.528L-9.884-5.8l-2.369-6.207h-2.074l3.3,8.07Zm5.9,0v-8.07H-4.66v8.07Zm3.509,0V-6.828H2.844A2.594,2.594,0,0,0,5.713-9.4a2.6,2.6,0,0,0-2.868-2.6h-4v8.07ZM3.856-9.417A1.138,1.138,0,0,1,2.6-8.3H.667V-10.53H2.6A1.145,1.145,0,0,1,3.856-9.417Z" transform="translate(24.808 17.317)" fill="#fff"/>
</svg>
